<svg version="1.1" id="Layer_1" xmlns="http://www.w3.org/2000/svg" xmlns:xlink="http://www.w3.org/1999/xlink" x="0px" y="0px"
	 width="100%" viewBox="0 0 1024 928" enable-background="new 0 0 1024 928" xml:space="preserve">
<path fill="#000000" opacity="1.000000" stroke="none" 
	d="
M1025.000000,131.000000 
	C1025.000000,330.694702 1025.000000,530.389404 1024.669189,730.394958 
	C1018.136902,730.879639 1011.286926,731.052124 1007.771423,736.640198 
	C1003.526550,743.387756 998.435791,749.504395 994.223816,756.152649 
	C983.864197,772.504028 980.232239,790.888489 981.285095,810.085938 
	C981.851135,820.406189 981.838379,830.707520 981.915466,841.025146 
	C981.982422,849.983643 980.369507,858.568115 977.211060,866.900146 
	C973.903259,875.626282 970.691772,884.325195 970.539978,893.885010 
	C970.473755,898.048767 969.568237,902.664612 965.970093,905.134583 
	C958.492310,910.267944 954.559937,918.378479 948.474487,924.637207 
	C947.295105,925.850159 945.411377,927.256531 948.000000,929.000000 
	C653.305298,929.000000 358.610596,929.000000 63.450638,928.727173 
	C61.413361,924.999634 59.394333,921.668335 58.396637,918.054993 
	C57.423546,914.530701 55.445843,912.658569 52.195248,911.701721 
	C47.900055,910.437378 43.555202,909.323608 39.311142,907.907104 
	C28.699589,904.365234 26.032045,898.763184 30.235235,888.581604 
	C31.815392,884.753906 32.071762,881.135925 29.794762,877.663391 
	C27.252058,873.785583 24.549583,870.002747 21.735500,866.316895 
	C20.308794,864.448242 18.163347,862.421326 15.814880,863.701599 
	C9.833773,866.962280 5.869114,865.151917 3.000539,858.799561 
	C2.110066,860.669250 1.555034,861.834656 1.000001,863.000000 
	C1.000000,613.305298 1.000000,363.610596 1.315803,113.559326 
	C7.686311,112.655479 13.626327,112.529526 19.740791,113.726532 
	C23.566057,114.475395 27.542860,112.606247 29.608034,108.395210 
	C34.029766,99.378960 40.493870,92.682053 50.383648,89.479332 
	C53.788372,88.376740 56.740898,85.915016 59.953793,84.173416 
	C63.955322,82.004295 64.734726,78.862633 62.834850,74.940475 
	C57.478977,63.883614 60.746231,54.321789 67.853836,45.398518 
	C74.107513,37.547321 80.835861,30.252729 89.958710,25.564999 
	C92.312744,24.355394 95.278069,22.829788 95.736137,20.308155 
	C96.914680,13.820346 94.942680,7.415469 94.000000,1.000000 
	C364.694702,1.000000 635.389404,1.000000 906.322876,1.180916 
	C903.457703,4.152903 906.949768,7.358199 906.008789,10.268675 
	C903.635315,17.609777 907.324463,22.209787 912.400391,27.033228 
	C917.724976,32.093079 924.417847,36.666977 925.883179,44.545174 
	C927.458862,53.016640 930.351562,61.340641 930.075928,70.068420 
	C929.716675,81.447060 934.898071,89.755501 943.539001,96.470985 
	C947.604858,99.630936 951.953369,102.550285 955.182495,106.610825 
	C959.079468,111.511223 964.127502,114.468948 969.918579,116.397850 
	C976.859619,118.709793 984.605591,119.745941 990.583374,123.559753 
	C1001.416321,130.471207 1012.381836,133.774277 1025.000000,131.000000 
M732.373108,65.061386 
	C730.222107,60.010868 728.354309,54.816322 725.871582,49.934532 
	C714.474548,27.524920 686.780762,20.071117 665.654541,33.670452 
	C657.093872,39.181072 648.896606,45.240513 641.727905,52.483501 
	C638.401855,55.844013 634.738403,57.134441 630.196655,57.350693 
	C617.989929,57.931881 606.106445,60.533737 594.540955,64.305229 
	C563.377136,74.467697 537.162964,92.152687 515.896912,117.090134 
	C513.448181,119.961655 512.119934,120.755386 509.101898,117.352425 
	C480.013123,84.553612 444.071442,64.396767 400.202789,59.209362 
	C396.247467,58.741650 393.154419,57.323063 390.378723,54.176552 
	C380.830444,43.352882 369.718597,34.254379 357.110413,27.252081 
	C336.584869,15.852656 310.236206,24.506908 300.125854,45.620262 
	C293.627594,59.190506 288.551453,73.232666 286.164764,88.152863 
	C285.670319,91.243843 284.181671,93.494118 281.689545,95.567123 
	C254.913010,117.840485 236.653214,145.731506 227.388290,179.339386 
	C221.466110,200.821762 219.601654,222.861664 219.239685,245.059174 
	C219.134323,251.519989 219.174484,251.497421 212.933334,251.391602 
	C198.920120,251.153976 184.918930,251.600632 171.109741,254.067947 
	C150.216400,257.800964 130.871124,265.680511 112.835220,276.841156 
	C110.920609,278.025909 109.131577,279.654114 106.427940,278.792084 
	C95.422691,275.283112 84.008362,274.044159 72.602036,272.592804 
	C45.555065,269.151306 22.179281,289.434875 23.537060,316.161835 
	C24.332916,331.827728 27.758648,347.151001 33.702267,361.745300 
	C35.084156,365.138519 35.042706,367.859161 33.731411,371.210327 
	C23.196213,398.134491 19.066338,425.963623 24.687023,454.497345 
	C35.632099,510.060669 63.892082,555.230896 108.652275,589.842590 
	C130.563034,606.785522 153.735992,621.888184 178.825699,633.845581 
	C181.303970,635.026794 183.257706,636.280273 183.398346,639.634644 
	C184.067673,655.599426 186.216965,671.425720 188.377777,687.240417 
	C194.513977,732.150574 206.522766,775.221924 229.045364,814.893616 
	C238.631729,831.779175 249.732925,847.540710 264.914703,860.035767 
	C283.104340,875.006348 304.041962,884.585999 326.350098,891.481140 
	C352.236298,899.482239 378.825867,903.584656 405.766083,905.770691 
	C430.703125,907.794250 455.667633,908.266968 480.661530,907.310181 
	C492.809052,906.845093 504.989777,905.412598 517.091309,905.927185 
	C552.406738,907.428589 587.674377,908.034485 622.916626,904.709778 
	C648.646973,902.282349 674.108398,898.330627 698.846252,890.614502 
	C726.548157,881.973694 752.278381,869.750854 772.400269,848.069824 
	C790.327576,828.753418 802.585815,805.890015 812.727234,781.799683 
	C831.763000,736.581421 839.090881,688.866333 842.608215,640.370789 
	C842.890259,636.481689 843.947327,633.925598 847.704468,632.189392 
	C862.101257,625.536011 875.587524,617.249023 888.947998,608.736450 
	C923.825623,586.514099 954.222839,559.847046 975.127991,523.463501 
	C990.425049,496.840302 1000.972107,468.688232 1003.386963,437.892853 
	C1005.145874,415.461853 1001.308167,393.763947 993.670593,372.681824 
	C992.820923,370.336517 991.794678,368.039581 992.794739,365.439484 
	C997.784851,352.465454 1000.091309,338.884094 1002.291992,325.223724 
	C1005.972290,302.378265 987.964050,278.860809 964.907104,277.263275 
	C952.687195,276.416565 940.639771,278.034760 928.821838,281.145569 
	C925.350220,282.059387 922.575684,281.699158 919.511169,279.592194 
	C914.168823,275.919312 908.546692,272.614197 902.855713,269.494476 
	C875.197815,254.332794 845.373962,249.043320 814.140564,250.259094 
	C806.985291,250.537613 806.822937,250.384949 806.957825,243.152008 
	C807.238403,228.101990 805.638367,213.141464 803.294495,198.384430 
	C796.550903,155.925797 776.801880,120.575287 743.346619,93.217506 
	C740.744507,91.089653 739.345947,88.647156 738.509155,85.407967 
	C736.804260,78.808525 734.610291,72.335411 732.373108,65.061386 
z"/>
<path fill="#000000" opacity="1.000000" stroke="none" 
	d="
M967.911133,457.705017 
	C958.303711,495.738190 938.951477,527.700378 909.968689,553.141174 
	C882.173523,577.539490 851.168213,597.393127 816.461121,610.873352 
	C812.903992,612.254883 812.176025,614.609314 812.004333,617.756714 
	C811.134094,633.707520 810.091003,649.645264 808.314392,665.525879 
	C803.317383,710.192932 792.811279,753.158813 771.968140,793.468323 
	C754.527893,827.196960 728.003662,848.758240 691.846375,859.325134 
	C669.238770,865.932190 646.276550,870.200195 622.842407,872.570679 
	C595.936462,875.292480 568.998291,875.699402 542.020752,875.231323 
	C533.217712,875.078613 524.434021,873.983459 515.629089,873.683533 
	C511.001678,873.525940 506.339447,874.058960 501.706604,874.444397 
	C469.595459,877.115479 437.546295,876.415100 405.460846,873.567017 
	C378.995911,871.217773 353.093750,866.667419 327.760620,858.459290 
	C294.746429,847.762268 271.017029,826.850769 254.995209,796.210571 
	C239.014679,765.649353 228.628189,733.385620 222.635956,699.543579 
	C217.984528,673.273865 215.375549,646.808228 214.704590,620.160156 
	C214.572678,614.921387 211.658905,613.118835 207.494690,611.396606 
	C170.623489,596.147095 137.127014,575.279053 108.693100,547.365967 
	C80.688599,519.874512 62.393764,486.444611 55.973114,447.339142 
	C51.481239,419.981049 56.863739,393.997803 69.384842,369.451019 
	C71.171181,365.949066 71.395302,363.503265 68.929077,360.050262 
	C61.053265,349.023254 58.732346,335.990021 56.682446,322.943420 
	C56.656673,322.779388 56.683022,322.604401 56.641293,322.446014 
	C53.342770,309.927063 56.864563,302.548035 73.705093,304.705566 
	C85.840187,306.260223 97.835899,308.055969 108.423500,314.715057 
	C111.097130,316.396606 112.974236,315.651947 115.151306,313.980316 
	C126.841331,305.004333 139.397476,297.517487 153.185181,292.193359 
	C166.177109,287.176453 179.639267,284.664062 193.533478,283.584747 
	C214.841904,281.929565 234.966415,285.386047 253.892868,295.442017 
	C254.741364,295.892853 255.733093,296.293152 256.840607,295.743286 
	C258.371552,294.047546 257.177338,292.288177 256.683228,290.648315 
	C249.168488,265.707886 249.763794,240.445206 253.221848,214.976578 
	C255.129028,200.930283 257.327545,187.067978 262.710388,173.793747 
	C272.967926,148.498337 289.291962,128.164017 311.675476,112.700539 
	C315.546906,110.025970 317.125153,107.547928 317.045868,102.326088 
	C316.846405,89.188141 321.237579,76.823906 326.287323,64.786407 
	C327.059692,62.945206 327.796112,61.066181 328.793640,59.346451 
	C331.719177,54.302666 337.103180,52.313358 342.029785,55.296268 
	C354.511658,62.853657 366.175446,71.552620 373.422516,84.638290 
	C375.597870,88.566208 377.953033,89.957077 382.342346,90.025848 
	C432.713989,90.815079 470.668152,113.897026 498.242126,155.230545 
	C502.869659,162.167206 506.450287,169.709015 509.365051,177.550064 
	C510.095673,179.515579 510.576263,181.771576 513.015564,182.698273 
	C515.445007,181.830765 515.604309,179.403732 516.361206,177.511932 
	C534.829773,131.351456 568.690796,103.006157 616.640869,91.226486 
	C626.673279,88.761864 637.062744,88.197006 647.422180,88.697205 
	C650.931213,88.866631 653.212585,87.708725 655.356750,84.793755 
	C662.766602,74.720093 672.533142,67.152184 682.944458,60.455002 
	C688.780334,56.701023 694.921143,58.658390 697.908997,64.995934 
	C703.622253,77.114853 707.724243,89.775253 709.111816,103.136497 
	C709.486633,106.745575 710.987427,108.823051 713.793518,110.732124 
	C740.887756,129.164658 758.804688,154.320694 768.140930,185.629944 
	C771.577148,197.153534 772.656799,209.143555 773.997192,221.008041 
	C776.171326,240.252884 776.496033,259.550995 772.338379,278.658264 
	C771.631592,281.906342 770.718079,285.109558 769.893005,288.331696 
	C769.481445,289.939178 768.728943,291.681976 770.245728,293.005493 
	C771.817688,294.377136 773.430908,293.212067 774.887695,292.524963 
	C785.035645,287.739014 795.534424,283.912476 806.717773,282.705536 
	C840.733887,279.034515 872.290405,286.052460 900.844055,305.260193 
	C905.673157,308.508667 910.285828,312.101288 914.821472,315.754761 
	C917.141602,317.623627 919.089539,318.265900 921.997925,316.821777 
	C933.740784,310.990845 946.597961,309.942596 959.361694,308.903320 
	C966.181213,308.348083 970.819824,312.789886 970.243835,319.525360 
	C968.948486,334.674194 966.502563,349.636627 958.425293,362.956604 
	C956.864624,365.530273 956.657654,367.641113 957.993103,370.356323 
	C968.117432,390.941467 972.758179,412.663727 971.409363,435.640961 
	C970.977966,442.990295 969.437561,450.127075 967.911133,457.705017 
M316.148254,638.616455 
	C312.565521,643.855469 309.417236,649.341614 306.949036,655.192993 
	C298.556427,675.089294 295.120575,695.425476 302.370667,716.434753 
	C314.224518,750.784851 352.937195,778.774475 394.155212,775.073486 
	C420.385590,772.718140 446.311127,768.718018 470.319916,758.202820 
	C489.895599,749.629272 509.546295,746.099365 530.492554,747.581909 
	C530.658386,747.593689 530.826050,747.592224 530.992310,747.584656 
	C538.657410,747.238525 545.922485,749.036560 552.801270,752.180420 
	C566.628906,758.500000 580.954956,763.274475 595.633118,767.185852 
	C613.734497,772.009705 632.183838,775.124207 650.800415,775.367920 
	C678.463196,775.730103 701.527649,764.415405 719.974304,743.904114 
	C732.036621,730.491638 739.715393,714.774902 740.250610,696.656433 
	C740.916077,674.131165 733.928223,653.495300 720.243103,635.635315 
	C696.835754,605.087341 672.773987,575.041748 649.212952,544.610291 
	C631.266357,521.430481 612.563904,498.829285 595.608643,474.886200 
	C585.705200,460.901276 574.091614,448.641663 559.771118,439.041809 
	C534.003357,421.768219 505.582977,421.549011 479.604736,438.467255 
	C468.317902,445.817719 458.317108,454.713654 450.340240,465.443115 
	C434.138397,487.235809 417.503723,508.686188 400.803253,530.090454 
	C372.726257,566.075378 344.613770,602.032654 316.148254,638.616455 
M207.053787,365.414978 
	C204.055435,365.400482 201.049667,365.241760 198.059952,365.395325 
	C180.732132,366.285370 166.011948,372.588959 155.316986,386.694122 
	C143.597412,402.150604 141.249023,420.160095 143.762604,438.489746 
	C147.935257,468.917664 160.979385,495.555084 183.238220,516.875122 
	C205.146393,537.859192 230.774933,551.213318 262.230896,548.625671 
	C283.314545,546.891296 298.783508,536.162720 307.735809,516.773621 
	C314.985291,501.072479 315.151703,484.216125 310.974365,468.262787 
	C296.817505,414.198029 265.754333,376.217773 207.053787,365.414978 
M769.774597,389.297180 
	C768.612244,390.243500 767.409668,391.144806 766.293396,392.142700 
	C735.600708,419.580658 717.838867,453.134857 718.418640,495.028503 
	C718.794922,522.215576 737.036804,543.918152 763.712646,548.991882 
	C776.663208,551.455200 789.493408,549.793213 802.133850,545.872620 
	C858.264587,528.462891 891.764587,466.237640 887.839966,420.449585 
	C884.706909,383.896851 855.975952,362.377716 821.606934,366.927368 
	C802.432861,369.465607 785.643616,377.389862 769.774597,389.297180 
M474.682800,270.561890 
	C474.787903,266.223541 474.192261,261.942169 473.801422,257.632721 
	C471.825439,235.843750 464.372253,216.150955 451.091125,198.822479 
	C438.719025,182.680115 423.017914,171.484329 402.441986,168.287735 
	C375.197723,164.055130 350.548950,178.625107 339.644379,201.909988 
	C322.988892,237.475143 324.363525,273.272797 341.583435,308.252380 
	C351.095917,327.575531 365.598480,342.663849 385.306854,351.948364 
	C420.620667,368.584473 453.983704,355.043610 468.026093,318.652954 
	C473.881775,303.478210 475.218658,287.637482 474.682800,270.561890 
M694.237305,299.780243 
	C705.497803,270.317017 706.300049,240.611084 695.432922,210.953156 
	C685.616699,184.163528 662.039978,167.327866 635.653625,168.497025 
	C612.699707,169.514069 594.449463,180.627884 581.126648,198.730927 
	C553.777466,235.892929 549.441162,277.259186 563.777100,320.104279 
	C575.764832,355.931488 611.041016,369.423767 645.242188,353.248322 
	C668.539368,342.229919 683.776855,323.675995 694.237305,299.780243 
M78.581833,354.187866 
	C85.801483,344.003937 93.566605,334.293243 102.600861,325.618988 
	C106.715187,321.668610 106.269577,318.962463 101.059929,316.625488 
	C90.627853,311.945831 79.523117,309.965607 68.174454,309.486237 
	C63.270729,309.279083 61.169182,311.484924 61.392178,316.558960 
	C61.787491,325.553986 63.463871,334.357086 66.490601,342.865295 
	C67.714119,346.304626 68.858131,349.781616 70.980545,352.829132 
	C72.835831,355.493073 74.968292,356.848633 78.581833,354.187866 
M964.853210,323.725708 
	C965.917358,315.715942 964.525635,314.057190 956.569153,314.334076 
	C953.252686,314.449524 949.944153,314.923798 946.643311,315.327545 
	C939.610413,316.187775 932.438904,316.902039 931.500977,326.248169 
	C931.469971,326.557404 931.264160,326.883636 931.058594,327.135559 
	C928.632996,330.107269 929.802490,332.470154 931.992371,335.045807 
	C937.604065,341.645844 942.750732,348.605316 947.440247,355.906067 
	C951.180847,361.729645 953.619568,361.633453 956.695984,355.309967 
	C961.407959,345.624573 963.586548,335.211243 964.853210,323.725708 
M349.238983,95.599014 
	C354.079681,94.044189 359.343201,93.657547 363.309662,89.798691 
	C366.181000,87.005180 366.669128,84.222519 364.292511,81.012413 
	C360.706604,76.168907 356.401459,72.050781 351.418274,68.673927 
	C349.476868,67.358360 337.961182,68.093498 336.143585,69.494148 
	C330.075134,74.170578 327.231873,86.959579 330.744934,93.777557 
	C333.328979,98.792656 335.309845,99.623337 340.807831,98.005020 
	C343.352325,97.256050 345.899078,96.514565 349.238983,95.599014 
M699.565002,83.897346 
	C698.042969,78.604416 696.123413,73.442688 693.532898,68.597878 
	C691.061096,63.975006 688.493347,63.270630 684.195312,66.076141 
	C680.303589,68.616440 676.658325,71.547562 672.998169,74.425606 
	C669.015930,77.556870 668.767395,82.558929 667.626648,86.868881 
	C666.854370,89.786736 668.787537,92.521210 672.328369,93.476387 
	C676.984314,94.732361 681.818787,95.742104 686.117371,97.811554 
	C692.871277,101.063087 695.210938,94.715195 699.266174,92.377403 
	C702.506165,90.509567 700.221619,87.310387 699.565002,83.897346 
z"/>
</svg>